<svg width="100%" height="100%" viewBox="0 0 23 21" fill="none" xmlns="http://www.w3.org/2000/svg">
<mask id="path-1-inside-1_25368_710" fill="white">
<path d="M20.3647 1.43593C18.01 -0.753131 14.5081 -0.359381 12.3468 2.07343L11.5003 3.02499L10.6538 2.07343C8.49677 -0.359381 4.99052 -0.753131 2.63583 1.43593C-0.0626076 3.94843 -0.204405 8.45781 2.21044 11.1812L10.5249 20.5469C11.062 21.1516 11.9343 21.1516 12.4714 20.5469L20.7858 11.1812C23.205 8.45781 23.0632 3.94843 20.3647 1.43593Z"/>
</mask>
<path d="M20.3647 1.43593C18.01 -0.753131 14.5081 -0.359381 12.3468 2.07343L11.5003 3.02499L10.6538 2.07343C8.49677 -0.359381 4.99052 -0.753131 2.63583 1.43593C-0.0626076 3.94843 -0.204405 8.45781 2.21044 11.1812L10.5249 20.5469C11.062 21.1516 11.9343 21.1516 12.4714 20.5469L20.7858 11.1812C23.205 8.45781 23.0632 3.94843 20.3647 1.43593Z" stroke="#101010" stroke-width="2" mask="url(#path-1-inside-1_25368_710)"/>
</svg>
