<svg width="100%" height="100%" viewBox="0 0 23 21" fill="none" xmlns="http://www.w3.org/2000/svg">
<mask id="path-1-inside-1_124615_704" fill="white">
<path d="M20.3647 1.4363C18.01 -0.752765 14.5081 -0.359015 12.3468 2.0738L11.5003 3.02536L10.6538 2.0738C8.49677 -0.359015 4.99052 -0.752765 2.63583 1.4363C-0.0626076 3.9488 -0.204405 8.45817 2.21044 11.1816L10.5249 20.5472C11.062 21.1519 11.9343 21.1519 12.4714 20.5472L20.7858 11.1816C23.205 8.45817 23.0632 3.9488 20.3647 1.4363Z"/>
</mask>
<path d="M20.3647 1.4363C18.01 -0.752765 14.5081 -0.359015 12.3468 2.0738L11.5003 3.02536L10.6538 2.0738C8.49677 -0.359015 4.99052 -0.752765 2.63583 1.4363C-0.0626076 3.9488 -0.204405 8.45817 2.21044 11.1816L10.5249 20.5472C11.062 21.1519 11.9343 21.1519 12.4714 20.5472L20.7858 11.1816C23.205 8.45817 23.0632 3.9488 20.3647 1.4363Z" stroke="#101010" stroke-width="2" mask="url(#path-1-inside-1_124615_704)"/>
</svg>
